# xmcd CD database file
#
# Track frame offsets:
#	150
#	23842
#	53510
#	82035
#	113793
#	132884
#	159124
#	178473
#	215601
#	236484
#
# Disc length: 3532 seconds
#
# Revision: 0
# Processed by: cddbd v1.5.2PL0 Copyright (c) Steve Scherf et al.
# Submitted via: CDex 1.70beta2
#
DISCID=7f0dca0a
DTITLE=Wes Montgomery - Portrait of Wes
DYEAR=2013
DGENRE=Jazz
TTITLE0=Freddie Freeloader
TTITLE1=Lolita
TTITLE2=Blues Riff
TTITLE3=Dangerous
TTITLE4=Yesterday's Child
TTITLE5=Moanin'
TTITLE6=Blues Riff Take 7
TTITLE7=Blues Riff Take 8
TTITLE8=Moanin' Take 7
TTITLE9=Moanin' Take 10
EXTD=YEAR: 2013
EXTT0=
EXTT1=
EXTT2=
EXTT3=
EXTT4=
EXTT5=
EXTT6=
EXTT7=
EXTT8=
EXTT9=
PLAYORDER=
